<?xml version="1.0" encoding="UTF-8"?>
<svg id="Ebene_1" xmlns="http://www.w3.org/2000/svg" version="1.1" viewBox="0 0 1024 1024">
  <!-- Generator: Adobe Illustrator 29.8.6, SVG Export Plug-In . SVG Version: 2.1.1 Build 1)  -->
  <defs>
    <style>
      .st0 {
        isolation: isolate;
      }

      .st1 {
        fill: #1d1d1b;
      }
    </style>
  </defs>
  <g class="st0">
    <g class="st0">
      <path class="st1" d="M137.1,197.1h89.5c125.8,0,191.2,68.1,191.2,159.5s-65.5,158.2-191.2,158.2h-24v136.1h-65.5V197.1ZM352.3,356.6c0-64.2-41.5-101.8-126.4-101.8h-23.3v204.2h23.3c84.9,0,126.4-38.9,126.4-102.4Z"/>
      <path class="st1" d="M482.6,191.9l4.5-1.3,202.3,276.2,202.3-276.2,4.5,1.3v459h-65.5v-230.1l1.3-52.5-140,195.8h-5.2l-140-195.8,1.3,52.5v230.1h-65.5V191.9Z"/>
    </g>
  </g>
  <g class="st0">
    <path class="st1" d="M132,704.1h18.5c26,0,39.6,14,39.6,32.9,0,18.8-13.5,32.7-39.5,32.8h-5s0,28.2,0,28.2h-13.5s-.2-93.8-.2-93.8ZM176.6,737c0-13.3-8.6-21-26.2-21h-4.8s0,42.2,0,42.2h4.8c17.6,0,26.1-8.1,26.1-21.2Z"/>
    <path class="st1" d="M201.5,720.1h31c0,0,0,10.8,0,10.8h-18.5s0,17.7,0,17.7h18.1s0,10.4,0,10.4h-18.1s0,27.9,0,27.9h19s0,10.8,0,10.8h-31.5c0,0-.1-77.7-.1-77.7Z"/>
    <path class="st1" d="M259,731.3h-15.3s0-11.2,0-11.2h42.9c0,0,0,11.2,0,11.2h-15.2s.1,66.5.1,66.5h-12.5s-.1-66.5-.1-66.5Z"/>
    <path class="st1" d="M299.4,719.9h12.5s.1,77.8.1,77.8h-12.5s-.1-77.8-.1-77.8Z"/>
    <path class="st1" d="M339.9,731.1h-15.3s0-11.2,0-11.2h42.9c0,0,0,11.2,0,11.2h-15.2s.1,66.5.1,66.5h-12.5s-.1-66.5-.1-66.5Z"/>
    <path class="st1" d="M380.2,719.8h31c0,0,0,10.8,0,10.8h-18.5s0,17.7,0,17.7h18.1s0,10.4,0,10.4h-18.1s0,27.9,0,27.9h19s0,10.8,0,10.8h-31.5c0,0-.1-77.7-.1-77.7Z"/>
    <path class="st1" d="M457.3,702.5l.9-.3,41.9,57.1,41.7-57.2.9.3.2,94.9h-13.5s0-47.6,0-47.6l.2-10.9-28.9,40.5h-1.1s-29-40.4-29-40.4l.3,10.9v47.6c0,0-13.5,0-13.5,0l-.2-94.9Z"/>
    <path class="st1" d="M557.7,758.4c0-24,19.2-39.9,40-39.9,20.8,0,40.1,15.8,40.2,39.8,0,24-19.2,39.9-40,39.9-20.8,0-40.1-15.8-40.2-39.8ZM624.6,758.2c0-16.1-11.7-27.6-26.9-27.6-15.2,0-26.7,11.6-26.6,27.7,0,16.1,11.6,27.6,26.7,27.6,15.2,0,26.8-11.6,26.8-27.7Z"/>
    <path class="st1" d="M652.6,718.1l.8-.3,35.4,47.9,35-48.1.8.3v79c.1,0-12.3,0-12.3,0v-36.5c0,0,0-6.8,0-6.8l-23.3,31.3h-.7s-23.4-31.2-23.4-31.2v6.8c.1,0,.2,36.5.2,36.5h-12.5s-.1-79-.1-79Z"/>
    <path class="st1" d="M740,719.2h31c0,0,0,10.8,0,10.8h-18.5s0,17.7,0,17.7h18.1s0,10.4,0,10.4h-18.1s0,27.9,0,27.9h19s0,10.8,0,10.8h-31.5c0,0-.1-77.7-.1-77.7Z"/>
    <path class="st1" d="M797.3,749.5v7.1c.1,0,.2,40.2.2,40.2h-12.5s-.1-79-.1-79l.8-.3,40.6,48.3v-7c-.1,0-.2-40-.2-40h12.6s.1,79,.1,79l-.8.3-40.7-48.7Z"/>
    <path class="st1" d="M866.1,730.2h-15.3s0-11.2,0-11.2h42.9c0,0,0,11.2,0,11.2h-15.2s.1,66.5.1,66.5h-12.5s-.1-66.5-.1-66.5Z"/>
  </g>
</svg>