<?xml version="1.0" encoding="UTF-8"?>
<svg id="Ebene_1" xmlns="http://www.w3.org/2000/svg" version="1.1" viewBox="0 0 1200 300">
  <!-- Generator: Adobe Illustrator 29.8.6, SVG Export Plug-In . SVG Version: 2.1.1 Build 1)  -->
  <defs>
    <style>
      .st0 {
        isolation: isolate;
      }

      .st1 {
        fill: #1d1d1b;
      }
    </style>
  </defs>
  <g class="st0">
    <g class="st0">
      <path class="st1" d="M13,56.2h25.1c39.6,0,60.8,22.5,60.8,51.7s-21.2,51.7-60.8,51.7h-11.5v48.1h-13.6V56.2ZM85.3,108c0-24-16.7-39.6-47.6-39.6h-11v79.7h11c31,0,47.6-16,47.6-40.1Z"/>
      <path class="st1" d="M117.3,82.2h46.5v11.5h-33.8v35.9h33.1v11.3h-33.1v55.4h34.9v11.5h-47.6v-125.6Z"/>
      <path class="st1" d="M207.4,93.9h-25.1v-11.7h62.8v11.7h-24.9v113.9h-12.8v-113.9Z"/>
      <path class="st1" d="M265.6,82.2h12.8v125.6h-12.8v-125.6Z"/>
      <path class="st1" d="M324.1,93.9h-25.1v-11.7h62.8v11.7h-24.9v113.9h-12.8v-113.9Z"/>
      <path class="st1" d="M382.3,82.2h46.5v11.5h-33.8v35.9h33.1v11.3h-33.1v55.4h34.9v11.5h-47.6v-125.6Z"/>
      <path class="st1" d="M503.6,54.9l1.7-.4,66.7,101.8,66.7-101.8,1.7.4v152.9h-13.6v-100.9l.2-12.1-54.3,84.4h-1.3l-54.3-84.4.2,12.1v100.9h-13.6V54.9Z"/>
      <path class="st1" d="M664.2,145c0-38.3,30.5-64.3,64.3-64.3s64.1,26,64.1,64.3-30.3,64.3-64.1,64.3-64.3-26-64.3-64.3ZM779,145c0-31.2-23.4-52-50.4-52s-50.9,20.8-50.9,52,23.8,52,50.9,52,50.4-20.8,50.4-52Z"/>
      <path class="st1" d="M816.4,80.3l1.3-.4,55.9,86.2,56.1-86.4,1.3.4v127.7h-12.8v-82.9l.2-7.4-44.2,68.6h-1.1l-44.2-68.6.2,7.4v82.9h-12.8v-127.5Z"/>
      <path class="st1" d="M955.8,82.2h46.5v11.5h-33.8v35.9h33.1v11.3h-33.1v55.4h34.9v11.5h-47.6v-125.6Z"/>
      <path class="st1" d="M1037.7,113.8l.2,7.1v86.8h-12.8v-127.5l1.3-.4,70.1,96.1-.2-7.1v-86.6h12.6v127.5l-1.3.4-69.9-96.3Z"/>
      <path class="st1" d="M1153.5,93.9h-25.1v-11.7h62.8v11.7h-24.9v113.9h-12.8v-113.9Z"/>
    </g>
  </g>
</svg>