<?xml version="1.0" encoding="UTF-8"?>
<svg xmlns="http://www.w3.org/2000/svg" viewBox="0 0 595.3 841.9">
  <path
    fill="none"
    stroke="#1d1d1b"
    stroke-linecap="round"
    stroke-linejoin="round"
    stroke-width="1.8"
    d="M385.12 490.51c6.09 11.85 4.94 24.84 3.22 37.95-1.84 13.11-6.32 25.76-11.04 38.18-3.56 9.54-7.36 19.89-4.72 29.67 2.18 8.16 10 14.26 12.08 22.77 2.3 9.66-8.74 7.36-15.07 6.32-2.42-0.34-5.4-1.61-5.52-4.14-0.23-5.17 5.75-3.45 8.63-2.07 4.94 2.42 8.05 6.9 7.7 12.54-0.46 5.75-4.94 11.04-10.58 12.42-5.4 1.26-6.44-4.14-0.92-5.41 10.46-2.53 23.23-2.07 31.4 5.75 0.57 0.57 1.15 1.26 1.38 2.07 0.46 2.07-1.72 3.79-3.91 4.26-5.63 1.38-11.85-1.26-17.25 0.8 0.23 3.68 1.03 9.54-0.81 12.88 2.07-1.38 4.37-2.64 6.9-3.22 6.67-1.26 11.38 5.52 6.33 10.81-2.76 2.88-7.24 2.88-10.81 1.61-3.22-1.15-6.09-3.22-8.86-5.4 7.24 3.1 14.37 6.32 21.62 9.43 2.76 1.15 5.86 2.88 6.21 5.86 1.38 10.35-21.04 10-27.02 10.35-12.54 0.8-25.53-0.34-37.03-5.63-2.42-1.15-5.17-2.99-5.18-5.64 0-2.07 1.72-3.79 3.57-4.48 1.95-0.69 4.02-0.57 6.09-0.35 16.56 1.72 32.55 9.08 44.62 20.47 1.03 1.03 2.07 2.07 2.64 3.45 1.38 3.56-1.26 8.28-1.95 11.85-0.92 5.06-1.03 10.23-0.46 15.29 2.53 22.31 20.47 38.98 34.04 55.43 9.66 11.61 18.4 25.07 19.66 40.14"/>
</svg>
