<svg xmlns="http://www.w3.org/2000/svg" viewBox="0 0 572.77 549.93">
  <path fill="#1d1d1b" d="M391.68,476.24c-7.26-10.55-23.64-6.67-31.89-16.08-2-3.6-2.04-6.84-3.49-10.56-.62-3.26.08-6.7-1.12-9.91-1.01-3.35-1.98-6.76-4.62-9.16-1.4-1.28-1.91-3.18-3.54-4.28-1.57-1.12-2.89-2.89-4.5-3.71-1.27-.52-2.97-2.15-1.01-3.14,4.87-2.69,9.11-9.48,4.32-14.2-.93-1.11-2.51-1.57-2.62-2.44-.13-1.49,1.45-2.69,2.02-4.02,1.71-1.79,2.3-4.9,2.76-7.43.27-1.22-.3-2.48-.76-3.69-.15-.39-.15-.36-.23-.55-.2-.43-.42-.82-.67-1.25-.15-.25-.27-.48-.45-.72-.88-1.31-2.85-2.18-2.91-3.88.28-1.96,1.1-4.08,1.46-6.04.62-1.28.95-2.84.77-4.35.07-3.49-2.15-5.89-4.93-7.48-2.04-1.23-4.7-.45-6.76.52-1.18.43-1.3-.76-1.24-1.67.53-5.98,1.17-12.06,1.73-18.06.28-2.92-1.06-5.38-1.21-8.21.01-4.48-1.8-7.52-3.81-11.16-3.14-4.82-9.22-6.13-13.88-9.06-1.49-.71-4.56-1.38-3.66-3.66.03-.07.1-.21.13-.28.22-.38.22-.35.34-.51,2.76-2.6,5.12-6.13,7.1-9.32l.08-.11c10.8-15.87,15.96-34.86,16.63-53.87-.24-1.51-.25-2.71-.05-4.28.25-2.25-1.03-4.43,1.45-5.96,2.87-2.55,5.94-5.54,7.55-9.04,1.14-1.99,3.17-3.94,3.9-6.43,2.11-3.24,3.17-6.67,4.72-10.21.8-3.18,1-6.67,1.93-9.79,2.19-4.75,5.26-9.84,6.68-15.08.44-3.48.76-7.09.62-10.59-.86-7.88-5.81-14.96-12.05-19.64-2.35-2.81-6.08-3.89-8.89-6.07-6.11-8.14-13.09-16.09-17.95-25.06-1.31-4.04.95-9.41,2.13-13.25,1.58-3.61.53-7.52,1.96-11.16.75-2.17.45-4.73.14-7.04.12-1.46.21-3.14-.17-4.65-1.11-10.55-7.46-21.08-17.99-24.18-2.51-1-5.3-1.45-7.6-2.91-2.66-1.69-4.9-3.68-7.74-5.1-4.54-2.04-9.38-2.45-14.23-3.36-2.03-.04-3.76-.6-5.81-.8-2.43-.05-4.9.05-7.25-.52-11.75-2.76-28.22-2.13-39.38.67-3.17.69-6.62.56-9.57,1.95-5.81,1.4-11.3,3.57-15.59,7.85-4.32,3.15-7.13,10.9-4.85,15.58,2.87,2.82-3.16,6.15-4.74,8.42-7.26,9.86-5.64,28,2.89,35.07,2.86,1.82.36,5.61-2.03,6.73-1.11.37-2.23-.48-3.17-.95-1.95-1.1-3.54-2.12-6.05-3.16-23.51-9.48-9.81-14.9-21.22-20.33-7.07-2.64-13.89-5.96-20.87-8.83-4.8-2.5-7.86-7.27-12.53-9.99-1.37-.97-3.32-1.38-4.87-2.07-1.21-.56-2.04-1.16-3.23-1.38-3.73-.47-9.42.42-13,1.04-2.32.28-2.97,1.68-5.47,2.62-1.29.37-2.66,1.39-3.64,1.9-1.34.53-3.04.33-4.42,1.07-2.06.88-4.22,1.28-5.94,2.92-.79.64-1.33,1.7-2.21,2.18-1.01.55-2.7-.6-4.71-.92-6.78-.29-11.29,6.26-16.54,9.65-2.8,3.11-5.76,6.16-8.76,9.06-1.32,2.23-2.29,4.66-3.89,6.71-2.4,4.83-4.36,10.08-4.89,15.49.24,1.89.17,3.37,1.17,4.63.56.65,2.25.11,2.84.77.3.33.33.76.31,1.21-.53,3.8-2.05,9.82-1.57,14.39.59,2.73,1.55,5.32,2.14,7.97,1.18,4.72,3.13,9.09,4.47,13.75,1.11,3.4,1.39,7.86,4.55,9.98,1.26.74,2.64,1.39,3.98,1.9,1.53.49,3.4.66,4.61,1.85,1.04.91,2.32,3.16,1.77,4.25-.33.76-1.44.6-2.12.51-5.94-1.08-11.96-1.96-17.39-4.68-4.76-2.01-10.18-4.98-15.24-2.09-1.72,1.01-3.56,1.67-5.24,2.67-2.6,2.46-5.41,4.43-7.85,6.97-4.12,5.59-8.17,11.15-10.37,17.78-.5,2.32-.72,5.16-.06,7.55.91,1.74,3,2.68,4.87,4.14,1.37.91,2.48,1.62,2.71,2.56.17.76-.28,1.34-.88,2.01-.87.85-1.69,1.96-2.08,3.19-1.76,3.92-2.35,8.12-1.86,12.36.23,2.46.05,4.55.94,6.83.89,3.48,2.41,7.04,4.12,10.18,1.83,2.09,9.81,14.35,9.85,5.52-.02-2.91-.11-5.7-.99-7.77-.32-1.33-5.08-5.03-1.72-5.52,12.39,1.15,14.18-5.78,18.64-2.68,3.74,3.22,4.54,8.59,6.02,13.09,4.22,8.23,10.22,14.19,19.23,16.78,1.99.44,2.34,1.7,2.33,3.64.05,41.03,7.05,69.21,18.47,101.2,1.73,5.1,3.26,10.07,5.51,15,4.66,16.71,10.23,33.38,12.73,50.48.92,5.67,1.73,11.41,1.53,17.2,1,5.53,1.14,11.15-.13,16.69-.08,1.98.3,4.12-.1,6.04-.19,1.21-.54,2.73.42,3.7,76.7,1.53,154.82,1.04,231.61.17.63-.49.89-1.32,1.05-2.11.49-2.71,1.21-5.36,2.28-7.84.77-2.1,2.78-2.82,3.26-5.11,2.03-5.7.1-11.25-2.68-16.29-2.13-2.92-3.51-6.33-5.17-9.51-1.31-1.85-2.43-4.11-3.5-6.16-.83-1.2-1.7-2.4-2.21-3.79-.86-2.05-2.25-3.2-3.08-5.24-.69-1.87-1.78-3.46-2.86-5.06-1.22-3.18-3.63-5.59-4.68-8.73-.16-1.15.71-1.92,1.76-2.39,3.91-1.74,10.03,2.94,11.61,6.28.7.91,1.7,1.67,2.3,2.74.8,1.93,1.92,3.59,2.51,5.62,1.27,3.65,1.81,8.02,4.08,11.39,1.89,7.12,3.68,14.43,10.87,18.09,5.01,2.83,10.72,3.43,15.89,6.13,3.06,1.65,6.57,4.36,7.21,8.03.63,4.44-.81,9.65-4.12,12.58-.33.4-1.13,1.01-.65,1.51.33.26,1.15.42,1.67.39,4-.1,7.61,1,9.67-3.07,2.66-3.19,2.69-7.56,2.78-11.65.24-2.69-.44-5.7-1.88-7.89ZM347.24,159.31l.08-.05c2.19.02,3.72,2.22,5.32,3.39,1.81,1.61,2.45,4.69,3.31,6.69.36,3.07.22,6.31.1,9.39-.44,1.48-1.7.4-1.84-.66-.62-2.45-1.08-4.97-1.78-7.4-.6-1.13-1.27-2-1.62-3.26-.61-.94-.84-1.77-1.15-2.82-.27-.54-.8-.92-1.07-1.45-.27-.59-.29-1.32-.62-1.83-.25-.54-1.12-1.36-.73-1.99ZM201.08,93.67c.94-3.14,2.58-6.05,5.26-8.05l.13-.06c.92-.42,1.07.7.84,1.4-.7,2.37-1.56,4.81-1.93,7.19-1.12,2.63-2.39,5.52-3.75,8.03-.56.69-1.32,1.37-1.53,2.34-.42,2.06,1,3.74,1.28,5.69.21,1.69.01,3.66.47,5.25.06.65-.01,1.38-.72,1.52-.91-.12-2.02-2.4-2.12-3.6-.23-3.54-.41-7.18-.6-10.74.32-3.14,1.28-6.28,2.67-8.97ZM191.27,139.33c0-.53.38-.47.97-.4.99.1,1.95.49,2.76,1.05,1.08.61,1.76,1.25,2.26,2.36,1.05,2.17-1.19,3.8-.66,5.99.14.79.2,1.67.77,2.28.69.84,2.55.62,3.15,1.33l.09.11c.72,1.07-.37,2.26-.96,3.25-.92,1.98-2.38,2-3.8.52-2.42-2.16-.05-5.99-1.87-8.51-.33-.56-.49-1.39-.86-2-.93-1.25-1.99-2.28-2.15-3.81-.05-.78.32-1.38.3-2.16ZM197.75,160.68l.05-.05c.53.16,1.67.42,2.16.77.31.49.3,1.25.47,1.83.05.53.41,1.34.27,1.8-.17.18-.7.07-1.05.1-.36-.03-.86.08-1.07-.1-.27-.39,0-.71.46-.68.15-.02.21-.09.19-.21-.29-1.04-1.28-2.38-1.48-3.47ZM222.94,190.91c-.03.54-.12,1.15-.48,1.52l-.1.09c-.46.4-1.31.4-1.97.39-12.15-.25-24.54.49-36.58-.27-.16-.24-.02-.32.02-.52.97-1.66,2.59-2.5,4.22-3.35,3.82-2.21,8.09-3.28,11.99-5.44,1.35-.89,1.94-2.89,3.5-3.21,1.99.08,4.56.7,6.68.73,2.38.15,3.8-.47,5.77-1.02,1.61-.25,7.35-2.59,7.48.1-.04,3.63-.37,7.32-.52,10.96ZM317.09,165.16l.09-.04c.25-.09.59.02.98.25,2.21,1.33,4.19,3.45,6.18,4.9,4.12,3.25,6.44,7.4,9.24,11.77,1.71,2.54,1.29,5.42,2.31,8.13.35.71.3,1.67.45,2.31.95,2.78.88,6.12.6,9.18-.25,4.65-1.54,7.36-1.55,10.86-.23,1.6-1.32,2.87-1.51,4.7-.16.59-.96,3.19-1.8,2.48-.74-2.34-1.72-3.99-2.5-6.21-.9-2.83-1.71-5.57-2.86-8.29-2.23-4.34-2.92-9.09-5.09-13.42-.65-1.68-.69-3.69-1.42-5.36-1.69-4.97-2.77-10.28-3.24-15.57-.4-1.83-1.18-4.18.12-5.69ZM304.11,310.2c-1.34-.31-2.2-1.5-3.11-2.36-2.29-1.48-5.35-2.88-7.43-4.49-1.02-.53-2.13-.82-2.9-1.78-2.93-4.48,3.01-7.01,6.18-8.79,2.52-1.64,5.05-3.8,7.65-5.43,1.35-1.49,3.22-2.84,4.61-4.22l.1-.09c2.37-1.5,4.26-4.11,6.19-6.19.79-.77,1.62-1.44,2.22-2.36,1.43-1.93,2.93-3.87,4.28-5.88.18-.25.53-.72.78-.57.2.12.27.69.25,1.45-.52,5.86-1.38,11.56-3.21,16.51-.95,1.54-1.11,3.29-1.91,4.97-1.27,2.71-2.11,5.52-3.86,7.95-.74,1.73-1.27,3.18-2.37,4.61-.98,2.26-2.3,3.76-3.16,6.13-.87,1.64-2.86,1.06-4.25.55Z"/>
</svg>
