<svg xmlns="http://www.w3.org/2000/svg" viewBox="0 0 572.77 549.93">
  <path fill="#1d1d1b" d="M16.83,448.51c-7.3-13.45,6.05-27.47,21.31-23.42,3.48,4.65,3.66,11.58,6.45,16.71.81.75,2.08.08,1.69-.58-1.64-5.11-4-11.26-5.73-16.51-1.99-4.28-3.28-9.08-2.94-13.82-7.98-2.74-14.89-10.31-15.81-21.44-.61-3.55-4.67-11.33.22-17.44.51-1.03.82-2.83.26-3.79-4.73-3.66-7.28-10.33-.17-16.6.23-3.7-1.88-32.88-2.05-44.28,3-14.36,2.29-40.14,11.17-59.18,7.32-11.52,30.93-19.28,42.06-26.19,4.96-2.3,14.32-7.95,17.57-8.78.98-.09,4.9,1.17,5.29.22,5.93-6.97,12.38-16.52,13.02-26.64.1-1.12-.58-2.18-1.05-2.92-.41-1.51-.29-4.38-.44-5.66-1-2.54-5.98-8.09-8.01-19.8-.74-3.59-.56-7.08-.66-10.65-3.17-11.67,1.22-19.14,10.52-27.57,1.43-1.6-3.23.99-3.98,1.6-1.04.99-2.3,2.07-2.01.08.21-1.37,1.97-2.53,2.84-3.53,1.23-1.13,2.45-2.19,4.34-2.29,1.42-.02,2.85.21,3.65-1.23,3.51-6.08,7.93-8,14.72-7.91,4.19-2.08,6.92-6.83,12.19-5.45.92,4.23,5.34,4.67,9.12,4.71,4.92.17,9.92.97,14.91.74,2.49-1.09,2.99-2.88,4.98.41.58.97-1.62,3.69.33,3.5.88-.06,1.19-3,1.84-1.43.6,2.08,1.58,2.27,2.31.29.73-1.62,4.86-.96,5.07.73.05.65-.15,1.51.29,2.07.71.98,2,.52,2.56-.28.67-.62.57-2.02,1.21-2.46,2.13-.53,2.17,1.52,1.2,2.94-1.25,3.76,4.26,3.54,5.06,6.4.48,1.36-.81,4.25,1.36,4.52,2.27-.31.46-4.63,2.92-5.01,1.34.07,1.24,2.31,1.92,2.92,2.6,1.7,1.94,4.19.06,5.75.98-.18,2.19-.85,3.12-1.23.39-.18.53-.2.35,0-.44.78-1.99,1.33-2.63,1.98.05.47,3.33-.73,2.77-.28-.53.39-2.65,1.22-3.26,1.53.45.37,1.18.66,1.65,1.07,1.17.84,1.84,1.2,2.21,2.58,2.84,3.62-1.7,1.94-3.41,3.36-.69.51-.14,1.21.34,1.53,1.05-.46,2.56-.85,3.73-1.08,1.53-.66,1.23,2.86.32,3.19-1.63,1.27-6.03.46-6.3,2.75,1.09,4.69-4.3,1.46-4.94,3.51-.18,4.51-.12,13.2-.48,16.03-7.07,9.44-4.39,10.55.33,20.31,2.24,7.91-4.76,5.06-6.74,7.56-1.32,4.07-3.39,8.01-4.4,12.24-.41,2.27-.21,5.83-1,7.85-5.39,4.01-15.92-1-21.67-2.5-2.04,2.63-4.14,7.05-6.07,10.08-.97,2.01-2.1,2.93-2.04,3.91,5.28,2.6,19.13,9.18,21.44,10.32,14.62,7.56,22.68,14.47,21.9,35.81.09,4.31,1.38,24.32,1.83,33.19.12.77.54,1.69.94,2.37.05.03.08-.02.11-.13.21-1.56.88-8.53,1.21-11.57.47-3.19,2.55-7.05,3.66-10.41,1.63-3.19,1.03-7.49,2.24-11.02.78-3.48,2.78-6.7,4.71-9.73,2.13-2.89,7.59-3.31,8.52-6.89.41-1.7-.05-3.52.99-4.98,7.05-5.32,13.39-5.98,16.14-15.51,1.21-1.03-1.7-15.73-8.14-13.4-6.44,1.27-13.02,4.11-19.6,2.71-2.46-1.22-2.11-4.9-2.43-7.3.12-3.15-1-4.82-1.87-7.34-.13-.88.21-1.6.18-2.43-.24-1.27-.69-2.44-.8-3.78-1.84-6.48-12.95-2.59-.51-14.91,3.55-5.75-1.19-12.62.84-18.77,1.42-3.26,1.82-6.48,3.52-9.52.7-1.1.91-2.63-.41-3.3-1.08-1.09-.05-3.78.02-5.29.21-3.39,3.22-5.97,5.05-8.51,4.44-5.79,11.85-6.6,18.57-7.43,2.3-.06,8-.47,11.12-.51,2.94.5,6.1.69,9.11.32,2.16-.04,3.54-.39,5.73-.2,4.6.47,8.87-.54,12.34,1.44,3.27,1.13,4.98,2.94,7.62,5.13,4.09,3.19,8.2,6.32,11.93,9.94,2.67,2.88,6.99,6.75,9.28,10.51.99.63,2.13,5.35-.02,3.99-3.14-3.74-7.51-9.58-11.3-13.14-3.12-2.48-17.62-17.12-19.87-13.85,4.5,2.6,9.89,7.39,13.47,10.89,6.48,5.89,13.18,11.79,18.31,19.18.91,1.07,9.96,14.19,5.3,12.4-5.38-4.94-7.71-12.39-12.39-17.54.73,4.8,4.56,7.7,6.48,12.08,3.07,5.66,8.7,8.92,14.1,11.95,12.15,7.2,10.95,17.72,13.07,30.02.91,9.23,4,18.08,5.28,27.29,1.04,6.88,7.54,11.61,13.53,14.58,4.33,2.23,9.97,4.73,9.93,10.17-.1.59-.48.95-1.01.68-1.66-.89-1.68-3.2-2.7-4.49-2.95-2.5-7.22-3.46-10.38-5.8-4.17-2.29-7.16-5.12-10.38-8.44-1.15-1.27-1.95-3.61-3.15-4.81-.05.04-.01.27.11.7,2.3,10.77,14.33,13.76,22.09,19.82,2.18,3.92,5.87,7.28,7.84,11.07,1.1,1.75.48,4.33.64,6.42-.16,2.22.52,5.09-.84,7.09-3.08,3.63-7.76,5.96-11.65,8.7-1.19,1.55,1.89,2.77,2.09,4.34.79,2.23-.61,4.83.16,6.97.28.5.94.83.84,1.41-.77.91-2.86,1.23-2.83-.44.17-1.36-.52-13.04-3.15-7.27-.19.8-.2,1.12-.52,1.61-.12.92.29,2.23.47,3.22.29,2.4,1.38,4.16,2.26,6.28.26.82.35,2.05,1.08,2.49,7.66,1.51,11.15-7.85,17.12-10.83,1.32-.07,1.39,2.18.95,3.12-.68,1.95-3.09,2.52-4.52,3.66-2.01,2.16-3.77,4.3-6.57,5.59-2.87,1.61-6.59,1.84-9.67,2.41-.46,3.95,2.11,18.45,2.17,21.26.61,5.23,2.14,12,2.43,17.45-.03,3.5-.16,8.16-.19,11.33.69,4.21,2.14,7.97,2.46,11.79-1.18,4.19-2.34,8.53-1.33,12.89,3.09,1.66,11.54,3.71,13.67,4.62,11.52,5.09,31.81,6.56,35.13,24.5.45,1.8,3.02,13.43-4.64,20.19-1.22,1.2-2.75,2.06-4.14,2.72-26.58.23-167.51-.12-201.05.02-3.6,0-5.86.01-5.92-.01,6.33-1.4,16.28-2.55,22.46-4.26-.62-.05-5.67-13.22-4.85-18.77-.06,1.86-8.49,19.25-21.04,22.9-4.19.27-151.88.27-156,0l-.02-.03ZM233.42,234.72c-.32,1.52-1.07,2.45-1.79,3.82-1.3,2.44-3.5,4.07-5.38,6.09-1.45,1.29-4.24,2.2-5.86,3.18-1.77.86-3.39,2.08-3.72,4.14-.11.44-.27,1.55.44,1.08.73-.51,1.18-1.44,1.84-2,2.82-2.35,6.58-3.99,9.69-5.93,3.34-2,5.17-7,4.92-9.6-.02-.6-.02-1.16-.11-.83l-.02.06ZM218.52,255.05c.87.09,2.02-.7,2.87-1.21,1.05-.78,2.65-1.15,3.83-1.72,2.82-1.65,6-3.42,8.37-5.83.98-.76,1.17-1.52,1.63-2.75.49-1.24.86-2.57.87-3.87-.04-.49-.25-.93-.5-1.07-.26-.14-.5.02-.65.43-.55,1.33-.94,2.99-1.93,4-.81.8-2.03,2.22-2.95,2.96-1.52,1.06-3.22,2.05-4.88,3.07-1.72,1.07-3.51,1.87-5.06,3.29-.8.56-1.74,1.9-1.65,2.64l.04.05ZM204.17,151.09c.11.08.22.09.3,0,.8-1.47,2.23-3.79,3.7-5.54,2.14-2.55,5.43-5.9,9.04-6.82,1.11-.21,2.84-.5,3.71-.66,3.82-.54,7.84-.99,11.65-1.4,2.72-.25,5-.57,7.85-.49,1.89,0,3.57,0,5.42,0,1.55,0,2.12.1,3.33-.71.29-.19.83-.45.94-.71-4.05-.56-12.94-.27-17.03-.34-4.09.67-10.15,1.99-13.19,2.57-1.16.26-3.08.61-4.07.88-.94.33-2.38,1.1-3.38,1.57-1.44.69-2.91,2.4-4.21,3.44-1.08.93-1.34,1.49-2.38,2.84-1.23,1.69-3.02,3.33-1.73,5.31l.06.05ZM284.85,164.81c-.11.33-.54,1.34-.56,1.68.09.7.72,1.33,1.01,2.06.42.74.94,1.84,1.36,2.44.97,1.26,2.38,2.69,3.33,4.03.57.78,1.53,2.12,1.9,2.62.21.26.45.37.69.17.39-.37.51-1.14,0-1.45-3.16-2.33-7.32-11.09-7.72-11.6l-.02.05ZM301.91,187.23c-.05.54-.08,2.36.07,2.99.25,1.08.83,2.94,1.15,4.2.21,1.34-.02,3.78.01,5.15-.02,2.09,0,4.74,0,6.74.04,1.17-.13,2.9.17,4.06.41,2.69,3.09,4.11,4.98,5.66.55.39,1.26.97,1.47.87.04-.03.06-.09.05-.2-.24-.9-.6-1.64-1-2.5-.64-1.27-1.27-2.43-1.39-3.73-.51-3.18-1.21-5.61-1.25-8.12-.27-3.74.03-7.28-.67-10.21-.53-2.31-3.22-5.26-3.57-4.98l-.02.06ZM308.68,191.51c-.13.3.25,1.15.56,1.52,1.7,2.75,3.63,5.21,5.05,8.17.84,2.07.9,4.16,1.57,6.24.1,1.33-.03,2.69.45,4.01.24.95.93,1.08,1.14.17.09-.46,0-1.08-.1-1.7-.54-1.91.03-3.8-.58-5.62-.67-2.35-1.39-4.79-2.47-6.89-.41-.92-.47-.89-1.29-1.73l-3.7-3.77c-.35-.36-.54-.59-.62-.45l-.02.05ZM308.1,193.38c-.14,1.61-.15,4.51-.04,6.22.07.97.51,2.53.55,3.53-.01,1.38.17,1.8.57,3.29.33,1.23.52,2.56.98,3.69.85,2.21,2.61,3.85,3.94,5.83.83,1.04,1.69,2.15,2.36,3.27.41.72,1.61.81,2.26.57.38-.47-.29-1.56-.42-2.16-.51-1.13-.55-2.7-1.55-3.47-.58-.4-.89-.65-1.12-1.57-.25-.75-.7-1.83-1.01-2.67-.17-.47-.34-.99-.31-1.47-.42-2.03-1.02-5.33-1.81-7.35-1.03-2.58-2.56-5.13-4.03-7.4-.17-.26-.28-.38-.34-.35l-.03.02ZM320.65,235.68c-1.2.12-2.01,1.95-2.4,2.98-1.08,2.69-.37,5.09.4,7.78.47,1.78,1.71,3.91,2.46,5.67.47,1.11,1,1.35,1.85,2.28,2.34,2.23,5.13,5.54,7.48,7.39,2.43,1.68,5.32,3.62,7.9,5.24,1.79,1.13,2.91,3.06,4.39,4.61,1.26,1.44,2.03,3.12,2.85,4.92.26,1.14.37,2.79.56,4.1.22,1.47.02,2.68-.02,4.24-.06,1.31-.51,1.9-1.02,3.26-.55,1.9-2.1,2.94-3.36,4.34-.73,1.08-2.95,4.16-2.74,4.39.37-.03.93-.46,1.3-.71,1.16-.82,1.55-1.1,2.61-1.95,1.95-1.65,3.79-2.67,4.66-4.73.67-1.28,1.82-3.01,2.33-4.25.2-.66.12-2.29.12-3.23-.03-.92.09-1.71-.38-2.49-.69-1.16-1.89-3.46-2.69-4.6-1.26-1.47-3.54-3.99-4.74-5.36-1.55-1.71-3.55-3.6-5.4-5.29-1.03-.66-3.55-1.9-4.5-2.45-2.19-1.65-6.36-6.03-7.61-7.11-.97-1.15-1.75-2.69-2.65-3.99-.92-1.53-1.8-2.38-2.1-4.14-.49-1.93.04-4,.21-6,.06-.57.14-1.02.23-1.58.08-.99.69-2.7.32-3.28l-.06-.03ZM332.74,269.74c-.27,2.84,3.59,5.85,4.98,7.36,3.52,3.75,4,10.68,3.49,12.87,0,.06.04.06.13-.01,3.24-3.5,3.02-8.27,2.88-11.03-.26-8.24-7.19-10.19-11.32-9.44-.06.03-.11.08-.15.19l-.02.07ZM335.15,278c-1.2.26-.89,1.08-.48,1.99.32.82.89,2.3,1.24,3.2.61,1.41.49,2.87.57,4.44.07,1.63-.07,3.32-.4,4.9-.09.74-.5,1.78-.56,2.6,0,.4.36,1.54.7,1.63.13.01.25-.2.38-.47.88-1.99,1.42-3.77,1.69-5.97.78-6.94-2.32-12.05-3.05-12.32h-.08ZM333.88,293.22c1.07-3.72,1.57-9.11-.56-12.98-.25-.44-.38-.63-.36-.02,0,.78,0,2.24,0,2.62-.4,2.09-.94,3.92-1.43,5.89-.19.33.35.93.59,1.43.3.5.4,1.05.63,1.5.29.44,1,1.39,1.1,1.53l.03.03Z"/>
</svg>
