<?xml version="1.0" encoding="UTF-8"?>
<svg id="Ebene_1" data-name="Ebene 1" xmlns="http://www.w3.org/2000/svg" viewBox="0 0 526 744">
  <defs>
    <style>
      .cls-1 {
        fill: #1d1d1b;
        fill-rule: evenodd;
      }
    </style>
  </defs>
  <path class="cls-1" d="M277.33,474.13c-21.85-15.95-37.58-81.13-31.68-107.84,5.81-41.52,35.52-73.35,42.88-114.27,11.09-37.65-21.73-78.57-1.2-106.11,50.76-75.18,171.01-55.51,198.33,30.24,28.27,97.58-45.41,191.56-115.86,251.24-22.49,14.91-65.74,55.26-92.27,46.83l-.19-.1Z"/>
  <path class="cls-1" d="M138.28,100.98c77.14-13.54,139.35,57.89,135.02,132.12-5.59,79.86-69.65,110.9-33.82,198.4.53,8.51,22.32,40.43,15.3,43.36-7.36,2.02-15.16-3.17-23.23-6.23-12.17-5.29-24.04-11.06-35.67-17.14-55.33-29.85-107.7-73.17-136.69-129.69C12.68,233.94,26.64,122.77,138.03,101.02l.25-.04Z"/>
</svg>