<?xml version="1.0" encoding="UTF-8"?>
<svg id="Ebene_1" xmlns="http://www.w3.org/2000/svg" version="1.1" viewBox="0 0 595.3 841.9">
  <!-- Generator: Adobe Illustrator 29.8.6, SVG Export Plug-In . SVG Version: 2.1.1 Build 1)  -->
  <defs>
    <style>
      .st0 {
        fill: none;
        stroke: #1d1d1b;
        stroke-linecap: round;
        stroke-linejoin: round;
        stroke-width: 1.8px;
      }
    </style>
  </defs>
  <path class="st0" d="M417.1,462.4c5.3,10.3,4.3,21.6,2.8,33-1.6,11.4-5.5,22.4-9.6,33.2-3.1,8.3-6.4,17.3-4.1,25.8,1.9,7.1,8.7,12.4,10.5,19.8,2,8.4-7.6,6.4-13.1,5.5-2.1-.3-4.7-1.4-4.8-3.6-.2-4.5,5-3,7.5-1.8,4.3,2.1,7,6,6.7,10.9-.4,5-4.3,9.6-9.2,10.8-4.7,1.1-5.6-3.6-.8-4.7,9.1-2.2,20.2-1.8,27.3,5,.5.5,1,1.1,1.2,1.8.4,1.8-1.5,3.3-3.4,3.7-4.9,1.2-10.3-1.1-15,.7.2,3.2.9,8.3-.7,11.2,1.8-1.2,3.8-2.3,6-2.8,5.8-1.1,9.9,4.8,5.5,9.4-2.4,2.5-6.3,2.5-9.4,1.4-2.8-1-5.3-2.8-7.7-4.7,6.3,2.7,12.5,5.5,18.8,8.2,2.4,1,5.1,2.5,5.4,5.1,1.2,9-18.3,8.7-23.5,9-10.9.7-22.2-.3-32.2-4.9-2.1-1-4.5-2.6-4.5-4.9,0-1.8,1.5-3.3,3.1-3.9,1.7-.6,3.5-.5,5.3-.3,14.4,1.5,28.3,7.9,38.8,17.8.9.9,1.8,1.8,2.3,3,1.2,3.1-1.1,7.2-1.7,10.3-.8,4.4-.9,8.9-.4,13.3,2.2,19.4,17.8,33.9,29.6,48.2,8.4,10.1,16,21.8,17.1,34.9"/>
  <path class="st0" d="M282.4,206.4c-.8-6.1-5.5-46.3,24-80.3,12.5-14.5,27.1-23,40.2-28,25.4-9.8,54-8.6,78.3,3.6,5.7,2.9,11.6,6.5,17.3,11.1,41.7,33.6,38.1,88.3,37.7,93.6-2.6,34.5-7.8,73.9-17.5,116.8-12.3,54.5-28.9,101.2-45.3,139.2-34.4-7-73-17-114.5-31.6-33.3-11.7-63.3-24.5-89.8-37.3-20.3-9.5-84.8-42.8-98.5-106.1,0,0,0-.1,0-.2-3.1-14.6-1.6-29.8,4.1-43.7,7.4-18.1,22.5-42.8,52.3-56.2,36.7-16.5,80.8-9,111.8,19Z"/>
</svg>