<?xml version="1.0" encoding="UTF-8"?>
<svg xmlns="http://www.w3.org/2000/svg" viewBox="0 0 595.3 841.9">
  <path d="M230.21 196.11c-0.92-7.01-6.32-53.24 27.6-92.34 14.37-16.67 31.16-26.45 46.23-32.2 29.21-11.27 62.1-9.89 90.04 4.14 6.55 3.33 13.34 7.47 19.9 12.76 47.95 38.64 43.81 101.54 43.35 107.64-2.99 39.67-8.97 84.98-20.12 134.32-14.14 62.67-33.23 116.38-52.1 160.08-39.56-8.05-83.95-19.55-131.67-36.34-38.29-13.45-72.79-28.17-103.27-42.9-23.34-10.92-97.52-49.22-113.28-122.01 0 0 0-0.11 0-0.23-3.56-16.79-1.84-34.27 4.72-50.26 8.51-20.82 25.87-49.22 60.14-64.63 42.2-18.97 92.92-10.35 128.57 21.85Z"/>
</svg>
