<svg xmlns="http://www.w3.org/2000/svg" viewBox="0 0 595.3 841.9">
  <g transform="translate(46 130) scale(1.3)" fill="#1d1d1b">
    <path d="M291.01,133.68c3.17-1.95,37.47-22.36,67.14-6.57,4.64,2.47,10.77,6.67,16.57,14,3.49,4.8,11.45,17.16,11.43,34.29-.01,10.3-2.91,19.15-6.78,26.37-6.29,11.72-16.35,20.97-28.33,26.73l-119.46,57.47-46-110.86c-2.77-5.15-11.25-22.53-6.86-44.57.32-1.6.69-3.16,1.11-4.65,5.23-18.81,19.37-34.07,37.95-40.06,6.49-2.09,14.05-3.26,22.35-2.3,24.4,2.84,45.26,22.97,50.87,50.15Z"/>
  </g>
</svg>
