<svg xmlns="http://www.w3.org/2000/svg" viewBox="0 0 595.3 841.9">
  <g transform="translate(7 100) scale(1.5)" fill="#1d1d1b">
    <path d="M136.3,61.11c1.5-5.53,9.76-33.85,38.57-50.14,37.18-21.02,80.27-7.67,100.29,29.57,15.66,29.14,7.57,57.08,6,62.14-15.22-18.91-39.57-27.47-62.14-21.86-22.02,5.48-37.95,23.6-43.18,45.33-6.1,25.34,4.7,46.41,14.46,69.09,3.84,8.93,9.56,22.47,16.29,39.43-6,13.29-12,26.57-18,39.86-35.95-24.11-72.04-48.01-108.26-71.72-27.96-18.3-60.6-33.17-73.46-66.28C.02,118.9-1.21,98.73,5.18,80.79,26.1,22.02,95.54,27.45,136.3,61.11Z"/>
  </g>
</svg>
